<svg width="26" height="26" viewBox="0 0 26 26" fill="none" xmlns="http://www.w3.org/2000/svg">
<g clip-path="url(#clip0_200_1267)">
<path d="M18 15.46V16.96C18.0005 17.0992 17.972 17.2371 17.9162 17.3647C17.8604 17.4923 17.7786 17.6068 17.676 17.7009C17.5734 17.7951 17.4523 17.8667 17.3203 17.9114C17.1884 17.956 17.0487 17.9725 16.91 17.96C15.3714 17.7928 13.8935 17.2671 12.595 16.425C11.3869 15.6573 10.3626 14.6331 9.59497 13.425C8.74996 12.1206 8.22409 10.6355 8.05997 9.09C8.04747 8.95173 8.0639 8.81238 8.10822 8.68081C8.15253 8.54924 8.22375 8.42834 8.31735 8.32581C8.41095 8.22328 8.52487 8.14135 8.65186 8.08526C8.77886 8.02917 8.91614 8.00013 9.05497 8H10.555C10.7976 7.99761 11.0329 8.08354 11.2168 8.24177C11.4008 8.39999 11.521 8.61972 11.555 8.86C11.6183 9.34003 11.7357 9.81136 11.905 10.265C11.9722 10.444 11.9868 10.6385 11.9469 10.8254C11.907 11.0124 11.8144 11.1841 11.68 11.32L11.045 11.955C11.7567 13.2068 12.7932 14.2432 14.045 14.955L14.68 14.32C14.8159 14.1856 14.9875 14.0929 15.1745 14.053C15.3615 14.0132 15.556 14.0277 15.735 14.095C16.1886 14.2643 16.6599 14.3817 17.14 14.445C17.3828 14.4793 17.6047 14.6016 17.7632 14.7887C17.9218 14.9759 18.0061 15.2148 18 15.46Z" stroke="#9C9A98" stroke-width="0.88" stroke-linecap="round" stroke-linejoin="round"/>
</g>
<defs>
<clipPath id="clip0_200_1267">
<rect width="12" height="12" fill="white" transform="translate(7 7)"/>
</clipPath>
</defs>
</svg>
