<svg width="16" height="16" viewBox="0 0 16 16" fill="none" xmlns="http://www.w3.org/2000/svg">
<g clip-path="url(#clip0_440_649)">
<path d="M14.2001 10.2C14.3493 10.3486 14.4676 10.5253 14.5484 10.7197C14.6291 10.9142 14.6707 11.1227 14.6707 11.3333C14.6707 11.5439 14.6291 11.7524 14.5484 11.9469C14.4676 12.1414 14.3493 12.318 14.2001 12.4667L12.4668 14.2C12.3181 14.3492 12.1415 14.4675 11.947 14.5483C11.7525 14.629 11.544 14.6706 11.3334 14.6706C11.1229 14.6706 10.9144 14.629 10.7199 14.5483C10.5254 14.4675 10.3488 14.3492 10.2001 14.2L1.80011 5.79999C1.50048 5.49891 1.33228 5.09142 1.33228 4.66666C1.33228 4.24189 1.50048 3.83441 1.80011 3.53332L3.53345 1.79999C3.83453 1.50036 4.24201 1.33215 4.66678 1.33215C5.09155 1.33215 5.49903 1.50036 5.80011 1.79999L14.2001 10.2Z" stroke="#161412" stroke-opacity="0.45" stroke-width="0.933333" stroke-linecap="round" stroke-linejoin="round"/>
<path d="M9.66675 8.33333L11.0001 7" stroke="#161412" stroke-opacity="0.45" stroke-width="0.933333" stroke-linecap="round" stroke-linejoin="round"/>
<path d="M7.66675 6.33333L9.00008 5" stroke="#161412" stroke-opacity="0.45" stroke-width="0.933333" stroke-linecap="round" stroke-linejoin="round"/>
<path d="M5.66675 4.33333L7.00008 3" stroke="#161412" stroke-opacity="0.45" stroke-width="0.933333" stroke-linecap="round" stroke-linejoin="round"/>
<path d="M11.6667 10.3333L13.0001 9" stroke="#161412" stroke-opacity="0.45" stroke-width="0.933333" stroke-linecap="round" stroke-linejoin="round"/>
</g>
<defs>
<clipPath id="clip0_440_649">
<rect width="16" height="16" fill="white"/>
</clipPath>
</defs>
</svg>
